<svg width="82" height="28" viewBox="0 0 82 28" fill="none" xmlns="http://www.w3.org/2000/svg">
<path fill-rule="evenodd" clip-rule="evenodd" d="M25.9902 13.1291L19.7848 9.94685C19.4943 9.235 18.7951 8.73336 17.9787 8.73336C17.1081 8.73336 16.3707 9.30392 16.1202 10.0915L9.99098 15.1481C9.67551 14.9286 9.29214 14.8 8.87872 14.8C8.36808 14.8 7.90328 14.9963 7.55566 15.3175L0.121365 11.6829C1.00521 5.36344 6.43234 0.5 12.9954 0.5C20.051 0.5 25.7938 6.12091 25.9902 13.1291ZM6.99929 17.2717L0 13.8498C0.185401 20.8678 5.93266 26.5 12.9954 26.5C19.6871 26.5 25.1979 21.444 25.9161 14.9437L25.7557 15.2565L19.4134 12.004C19.0571 12.391 18.5462 12.6334 17.9787 12.6334C17.5037 12.6334 17.0683 12.4635 16.73 12.1812L10.8023 17.0715C10.649 17.9955 9.84616 18.7 8.87872 18.7C7.98246 18.7 7.22743 18.0953 6.99929 17.2717Z" fill="#605BFF"/>
<path fill-rule="evenodd" clip-rule="evenodd" d="M25.9902 13.1291L19.7848 9.94685C19.4943 9.235 18.7951 8.73336 17.9787 8.73336C17.1081 8.73336 16.3707 9.30392 16.1202 10.0915L9.99098 15.1481C9.67551 14.9286 9.29214 14.8 8.87872 14.8C8.36808 14.8 7.90328 14.9963 7.55566 15.3175L0.121365 11.6829C1.00521 5.36344 6.43234 0.5 12.9954 0.5C20.051 0.5 25.7938 6.12091 25.9902 13.1291ZM6.99929 17.2717L0 13.8498C0.185401 20.8678 5.93266 26.5 12.9954 26.5C19.6871 26.5 25.1979 21.444 25.9161 14.9437L25.7557 15.2565L19.4134 12.004C19.0571 12.391 18.5462 12.6334 17.9787 12.6334C17.5037 12.6334 17.0683 12.4635 16.73 12.1812L10.8023 17.0715C10.649 17.9955 9.84616 18.7 8.87872 18.7C7.98246 18.7 7.22743 18.0953 6.99929 17.2717Z" fill="#FAFAFB"/>
<path d="M39.76 20.5C39.4 20.5 39.12 20.4067 38.92 20.22C38.7333 20.02 38.64 19.74 38.64 19.38V7.52C38.64 7.16 38.7333 6.88667 38.92 6.7C39.12 6.5 39.4 6.4 39.76 6.4H44.52C45.4933 6.4 46.32 6.54667 47 6.84C47.6933 7.13333 48.22 7.55333 48.58 8.1C48.9533 8.64667 49.14 9.30667 49.14 10.08C49.14 10.9333 48.8867 11.6533 48.38 12.24C47.8733 12.8267 47.1867 13.22 46.32 13.42V13.12C47.3067 13.2533 48.08 13.6267 48.64 14.24C49.2 14.84 49.48 15.6267 49.48 16.6C49.48 17.8533 49.0667 18.82 48.24 19.5C47.4133 20.1667 46.2533 20.5 44.76 20.5H39.76ZM40.64 18.9H44.52C45.52 18.9 46.26 18.7067 46.74 18.32C47.22 17.92 47.46 17.32 47.46 16.52C47.46 15.72 47.22 15.1267 46.74 14.74C46.26 14.3533 45.52 14.16 44.52 14.16H40.64V18.9ZM40.64 12.56H44.2C45.16 12.56 45.8867 12.3667 46.38 11.98C46.8733 11.5933 47.12 11.0267 47.12 10.28C47.12 9.53333 46.8733 8.96667 46.38 8.58C45.8867 8.19333 45.16 8 44.2 8H40.64V12.56ZM55.1728 20.68C54.4928 20.68 53.8795 20.5467 53.3328 20.28C52.7995 20.0133 52.3795 19.6533 52.0728 19.2C51.7661 18.7467 51.6128 18.2333 51.6128 17.66C51.6128 16.94 51.7928 16.3733 52.1528 15.96C52.5261 15.5333 53.1328 15.2333 53.9728 15.06C54.8261 14.8733 55.9728 14.78 57.4128 14.78H58.3528V16.02H57.4328C56.4728 16.02 55.7128 16.0667 55.1528 16.16C54.5928 16.2533 54.1928 16.4133 53.9528 16.64C53.7261 16.8533 53.6128 17.1533 53.6128 17.54C53.6128 18.0467 53.7861 18.46 54.1328 18.78C54.4795 19.0867 54.9595 19.24 55.5728 19.24C56.0661 19.24 56.4995 19.1267 56.8728 18.9C57.2461 18.66 57.5395 18.34 57.7528 17.94C57.9795 17.54 58.0928 17.08 58.0928 16.56V14.26C58.0928 13.5 57.9328 12.9533 57.6128 12.62C57.2928 12.2867 56.7661 12.12 56.0328 12.12C55.6061 12.12 55.1595 12.1733 54.6928 12.28C54.2395 12.3867 53.7661 12.5667 53.2728 12.82C53.0461 12.9267 52.8528 12.96 52.6928 12.92C52.5328 12.88 52.4061 12.7933 52.3128 12.66C52.2195 12.5133 52.1661 12.36 52.1528 12.2C52.1528 12.0267 52.1928 11.86 52.2728 11.7C52.3661 11.54 52.5195 11.42 52.7328 11.34C53.3195 11.06 53.8995 10.86 54.4728 10.74C55.0461 10.62 55.5861 10.56 56.0928 10.56C56.9861 10.56 57.7195 10.7 58.2928 10.98C58.8795 11.26 59.3128 11.6867 59.5928 12.26C59.8728 12.8333 60.0128 13.5733 60.0128 14.48V19.62C60.0128 19.94 59.9328 20.1933 59.7728 20.38C59.6128 20.5533 59.3795 20.64 59.0728 20.64C58.7795 20.64 58.5461 20.5533 58.3728 20.38C58.1995 20.1933 58.1128 19.94 58.1128 19.62V18.32H58.2928C58.1861 18.8133 57.9861 19.24 57.6928 19.6C57.4128 19.9467 57.0595 20.2133 56.6328 20.4C56.2061 20.5867 55.7195 20.68 55.1728 20.68ZM66.215 20.68C65.6283 20.68 65.0217 20.6133 64.395 20.48C63.7817 20.3467 63.215 20.12 62.695 19.8C62.5217 19.68 62.4017 19.5467 62.335 19.4C62.2683 19.2533 62.2417 19.1067 62.255 18.96C62.2817 18.8 62.3417 18.6667 62.435 18.56C62.5417 18.44 62.6683 18.3667 62.815 18.34C62.975 18.3133 63.1417 18.3467 63.315 18.44C63.835 18.7333 64.335 18.94 64.815 19.06C65.295 19.1667 65.7683 19.22 66.235 19.22C66.9417 19.22 67.475 19.0933 67.835 18.84C68.195 18.5867 68.375 18.2467 68.375 17.82C68.375 17.4733 68.255 17.2067 68.015 17.02C67.775 16.82 67.415 16.6667 66.935 16.56L65.035 16.18C64.2083 16.0067 63.5817 15.7 63.155 15.26C62.7283 14.82 62.515 14.26 62.515 13.58C62.515 12.9667 62.6817 12.4333 63.015 11.98C63.3483 11.5267 63.815 11.18 64.415 10.94C65.015 10.6867 65.7083 10.56 66.495 10.56C67.0817 10.56 67.635 10.6333 68.155 10.78C68.675 10.9267 69.155 11.1467 69.595 11.44C69.7683 11.5333 69.8817 11.66 69.935 11.82C69.9883 11.9667 69.995 12.1133 69.955 12.26C69.9283 12.4067 69.8617 12.54 69.755 12.66C69.6483 12.7667 69.515 12.8333 69.355 12.86C69.2083 12.8733 69.0417 12.8333 68.855 12.74C68.455 12.4867 68.055 12.3067 67.655 12.2C67.2683 12.0933 66.8817 12.04 66.495 12.04C65.7883 12.04 65.255 12.1733 64.895 12.44C64.5483 12.6933 64.375 13.04 64.375 13.48C64.375 13.8133 64.4817 14.0867 64.695 14.3C64.9083 14.5133 65.2417 14.6667 65.695 14.76L67.595 15.14C68.4617 15.3133 69.115 15.6067 69.555 16.02C70.0083 16.4333 70.235 16.9933 70.235 17.7C70.235 18.62 69.8683 19.3467 69.135 19.88C68.4017 20.4133 67.4283 20.68 66.215 20.68ZM77.0625 20.68C75.9958 20.68 75.0758 20.48 74.3025 20.08C73.5425 19.6667 72.9492 19.0867 72.5225 18.34C72.1092 17.58 71.9025 16.68 71.9025 15.64C71.9025 14.6267 72.1092 13.74 72.5225 12.98C72.9358 12.22 73.5025 11.6267 74.2225 11.2C74.9425 10.7733 75.7625 10.56 76.6825 10.56C77.3625 10.56 77.9692 10.6733 78.5025 10.9C79.0358 11.1133 79.4892 11.4333 79.8625 11.86C80.2492 12.2733 80.5358 12.78 80.7225 13.38C80.9225 13.98 81.0225 14.6533 81.0225 15.4C81.0225 15.6267 80.9558 15.8 80.8225 15.92C80.6892 16.0267 80.4892 16.08 80.2225 16.08H73.5025V14.84H79.6625L79.3225 15.12C79.3225 14.4533 79.2225 13.8867 79.0225 13.42C78.8358 12.9533 78.5492 12.6 78.1625 12.36C77.7892 12.1067 77.3225 11.98 76.7625 11.98C76.1358 11.98 75.6025 12.1267 75.1625 12.42C74.7358 12.7133 74.4092 13.12 74.1825 13.64C73.9558 14.16 73.8425 14.7667 73.8425 15.46V15.58C73.8425 16.7533 74.1158 17.64 74.6625 18.24C75.2225 18.8267 76.0292 19.12 77.0825 19.12C77.4825 19.12 77.9025 19.0667 78.3425 18.96C78.7958 18.8533 79.2225 18.6733 79.6225 18.42C79.8492 18.2867 80.0492 18.2267 80.2225 18.24C80.4092 18.2533 80.5558 18.3133 80.6625 18.42C80.7825 18.5267 80.8558 18.66 80.8825 18.82C80.9092 18.98 80.8825 19.1467 80.8025 19.32C80.7225 19.48 80.5825 19.6267 80.3825 19.76C79.9292 20.0667 79.4025 20.3 78.8025 20.46C78.2025 20.6067 77.6225 20.68 77.0625 20.68Z" fill="#FAFAFB"/>
</svg>
