<svg width="24" height="27" viewBox="0 0 24 27" fill="none" xmlns="http://www.w3.org/2000/svg">
<g opacity="0.4">
<path fill-rule="evenodd" clip-rule="evenodd" d="M20.4023 15.5175C20.76 15.7268 21.036 16.0572 21.2301 16.3875C21.6083 17.0703 21.5776 17.9072 21.2097 18.6451L20.4943 19.9666C20.1162 20.6714 19.411 21.1119 18.6855 21.1119C18.3278 21.1119 17.9292 21.0017 17.6022 20.7815C17.3365 20.5943 17.0299 20.5282 16.7029 20.5282C15.6911 20.5282 14.8429 21.4422 14.8122 22.5325C14.8122 23.7989 13.872 24.79 12.6968 24.79H11.3069C10.1215 24.79 9.18125 23.7989 9.18125 22.5325C9.16081 21.4422 8.31259 20.5282 7.30085 20.5282C6.96361 20.5282 6.65702 20.5943 6.40153 20.7815C6.0745 21.0017 5.66572 21.1119 5.31825 21.1119C4.58245 21.1119 3.87729 20.6714 3.49917 19.9666L2.79402 18.6451C2.4159 17.9293 2.39546 17.0703 2.77358 16.3875C2.93709 16.0572 3.24368 15.7268 3.59115 15.5175C3.87729 15.3634 4.06125 15.1101 4.23498 14.8128C4.74596 13.8657 4.43937 12.6213 3.57071 12.0596C2.55897 11.4319 2.23194 10.0334 2.81446 8.94313L3.49917 7.64367C4.09191 6.55344 5.35913 6.168 6.38109 6.80672C7.27019 7.33532 8.425 6.98292 8.9462 6.04687C9.10972 5.73852 9.20169 5.40815 9.18125 5.07777C9.16081 4.64829 9.27323 4.24083 9.4674 3.91046C9.84553 3.22769 10.5302 2.78719 11.2763 2.76517H12.7172C13.4735 2.76517 14.1582 3.22769 14.5363 3.91046C14.7203 4.24083 14.8429 4.64829 14.8122 5.07777C14.7918 5.40815 14.8838 5.73852 15.0473 6.04687C15.5685 6.98292 16.7233 7.33532 17.6226 6.80672C18.6344 6.168 19.9118 6.55344 20.4943 7.64367L21.179 8.94313C21.7718 10.0334 21.4447 11.4319 20.4228 12.0596C19.5541 12.6213 19.2475 13.8657 19.7687 14.8128C19.9322 15.1101 20.1162 15.3634 20.4023 15.5175ZM9.10962 13.7886C9.10962 15.5176 10.4075 16.8941 12.012 16.8941C13.6165 16.8941 14.8837 15.5176 14.8837 13.7886C14.8837 12.0597 13.6165 10.6721 12.012 10.6721C10.4075 10.6721 9.10962 12.0597 9.10962 13.7886Z" fill="#030229"/>
</g>
</svg>
